<svg xmlns="http://www.w3.org/2000/svg" fill="none" viewBox="38.2 31.78 223.6 56.45"><path d="M78.995 32.84c-22.103 0-40.018 11.46-40.018 25.6s17.915 26.71 40.018 26.71c22.102 0 40.017-12.572 40.017-26.71 0-14.138-17.916-25.6-40.017-25.6Z" fill="#00BCFF"/><path d="M65.973 50.527c-.02.039-.41.443-.157.769.618.79 2.53 1.243 4.463.81 1.15-.259 2.626-1.432 4.055-2.566a16.244 16.244 0 0 1 4.628-2.951 5.29 5.29 0 0 1 3.376-.088 10.38 10.38 0 0 1 3.077 1.795c2.683 2.017 13.47 11.434 15.335 13.061a103.616 103.616 0 0 1 17.72-5.566c-.789-4.833-3.696-9.441-8.156-13.062-6.216 2.611-14.32 4.174-21.748.547a20.554 20.554 0 0 0-8.023-1.824c-5.893.137-8.446 2.687-11.148 5.387l-3.422 3.688Z" fill="#fff"/><path d="M100.312 62.382c-.127-.114-12.684-11.102-15.53-13.24a6.967 6.967 0 0 0-3.523-1.673 4.829 4.829 0 0 0-1.677.161 15.156 15.156 0 0 0-4.59 2.735c-1.59 1.268-3.09 2.46-4.483 2.773a7.25 7.25 0 0 1-4.94-.743 2.186 2.186 0 0 1-.82-.898 1.52 1.52 0 0 1 .42-1.641l3.465-3.749c.403-.401.808-.804 1.225-1.2-1.07.161-2.125.399-3.16.712a13.793 13.793 0 0 1-3.685.687 35.159 35.159 0 0 1-3.762-.588 61.689 61.689 0 0 1-10.802-3.615c-4.927 3.668-8.135 8.171-9.087 13.222.708.187 2.563.61 3.042.716 11.15 2.48 14.622 5.033 15.252 5.566a3.69 3.69 0 0 1 5.786.341 4.206 4.206 0 0 1 2.657-.935c.544.005 1.082.1 1.595.28a3.664 3.664 0 0 1 2.244 2.027 3.701 3.701 0 0 1 1.552-.33 4.68 4.68 0 0 1 1.855.41 3.959 3.959 0 0 1 2.188 4.423 4.427 4.427 0 0 1 4.864 4.398c0 .729-.182 1.446-.53 2.087a7.021 7.021 0 0 0 3.84 1.028 2.448 2.448 0 0 0 1.796-.783c.11-.157.227-.34.119-.472l-3.146-3.494s-.518-.49-.347-.679c.177-.194.497.084.724.274 1.6 1.337 3.555 3.355 3.555 3.355.034.022.163.277.886.407a3.268 3.268 0 0 0 2.486-.58c.2-.168.384-.355.547-.56a.192.192 0 0 1-.036.029 1.67 1.67 0 0 0-.09-2.071l-3.673-4.125s-.525-.486-.345-.68c.16-.17.496.086.727.277 1.162.973 2.805 2.62 4.38 4.164a2.995 2.995 0 0 0 3.525-.122 2.526 2.526 0 0 0 1.303-2.301 2.627 2.627 0 0 0-.775-1.533l-5.015-5.045s-.532-.453-.344-.681c.154-.193.496.084.723.273 1.597 1.337 5.923 5.304 5.923 5.304a3.046 3.046 0 0 0 3.404-.067 2.26 2.26 0 0 0 1.118-1.8 2.655 2.655 0 0 0-.841-2.044Z" fill="#fff"/><path d="M75.978 68.775c-.59.083-1.171.212-1.74.386-.062-.04.047-.353.12-.533.075-.179 1.1-3.262-1.398-4.332a2.945 2.945 0 0 0-3.482.52c-.104.108-.152.1-.163-.038a2.757 2.757 0 0 0-1.936-2.561 3.78 3.78 0 0 0-4.259 1.518 2.725 2.725 0 1 0-.81 2.32c.016.013.022.04.014.09a3.599 3.599 0 0 0 2.248 4.138 2.682 2.682 0 0 0 2.64-.407c.216-.153.251-.089.22.115-.092.633.026 1.987 1.924 2.755a2.436 2.436 0 0 0 2.86-.531c.244-.221.31-.185.323.158a3.443 3.443 0 1 0 3.439-3.598Z" fill="#fff"/><path d="M78.987 31.78c-22.523 0-40.78 11.98-40.78 26.673 0 .38-.005 1.429-.005 1.562 0 15.59 15.958 28.214 40.78 28.214 24.972 0 40.785-12.622 40.785-28.211v-1.565c-.001-14.694-18.258-26.673-40.78-26.673Zm38.941 23.717a93.438 93.438 0 0 0-17.13 5.569c-3.87-3.376-12.81-11.15-15.23-12.966a10.652 10.652 0 0 0-3.157-1.837 5.232 5.232 0 0 0-1.549-.242 6.495 6.495 0 0 0-1.968.332 16.117 16.117 0 0 0-4.632 2.932l-.077.062c-1.405 1.117-2.857 2.272-3.956 2.517a6.7 6.7 0 0 1-1.465.164 3.76 3.76 0 0 1-2.751-.886c-.068-.087-.023-.229.136-.431l.02-.028 3.405-3.667c2.665-2.666 5.183-5.183 10.978-5.316.097-.003.194-.005.29-.005 2.631.108 5.218.72 7.619 1.805a23.602 23.602 0 0 0 10.382 2.49 27.102 27.102 0 0 0 11.375-2.72c4.134 3.477 6.876 7.665 7.71 12.227ZM78.995 33.355c11.954 0 22.652 3.427 29.844 8.823a25.088 25.088 0 0 1-9.987 2.264 22.1 22.1 0 0 1-9.716-2.338 21.86 21.86 0 0 0-8.292-1.96c-.109 0-.22.002-.327.005a14.402 14.402 0 0 0-9.455 3.356 18.753 18.753 0 0 0-4.717.861 12.793 12.793 0 0 1-3.324.637c-.427 0-1.193-.039-1.262-.042a64.66 64.66 0 0 1-11.913-3.297c7.177-5.1 17.575-8.309 29.149-8.309Zm-30.56 9.374c4.973 2.035 11.008 3.606 12.916 3.73.532.034 1.1.094 1.667.096a14.15 14.15 0 0 0 3.751-.697c.723-.203 1.52-.424 2.358-.584-.224.22-.448.442-.672.667l-3.457 3.74a1.737 1.737 0 0 0-.474 1.91c.201.416.516.766.91 1.008a7.201 7.201 0 0 0 3.67.931c.491.004.982-.047 1.463-.153 1.45-.324 2.97-1.536 4.58-2.817a15.238 15.238 0 0 1 4.503-2.694 5.15 5.15 0 0 1 1.255-.172c.11 0 .218.006.325.02a6.77 6.77 0 0 1 3.406 1.624c2.838 2.133 15.397 13.12 15.521 13.229a2.426 2.426 0 0 1 .754 1.845 2.015 2.015 0 0 1-1.005 1.605 3.047 3.047 0 0 1-1.647.514 2.72 2.72 0 0 1-1.456-.422c-.046-.038-4.349-3.984-5.933-5.31a1.328 1.328 0 0 0-.744-.397.411.411 0 0 0-.33.155c-.248.307.03.732.36 1.011l5.026 5.055c.375.365.62.844.696 1.362a2.294 2.294 0 0 1-1.194 2.083 3.234 3.234 0 0 1-1.782.59 2.58 2.58 0 0 1-1.434-.436l-.72-.71c-1.319-1.297-2.68-2.638-3.675-3.469a1.337 1.337 0 0 0-.75-.389.422.422 0 0 0-.316.136c-.114.126-.193.353.091.729.077.101.162.196.254.283l3.667 4.12a1.407 1.407 0 0 1 .083 1.758l-.13.164a4.056 4.056 0 0 1-.341.33 2.932 2.932 0 0 1-1.793.567 2.81 2.81 0 0 1-.496-.042 1.246 1.246 0 0 1-.722-.304l-.046-.047c-.2-.207-2.049-2.094-3.578-3.371a1.267 1.267 0 0 0-.714-.382.438.438 0 0 0-.331.148c-.302.331.152.826.345 1.008l3.127 3.451a.703.703 0 0 1-.117.21c-.112.155-.491.535-1.626.677a3.134 3.134 0 0 1-.416.026 7.185 7.185 0 0 1-3.063-.909 4.666 4.666 0 0 0-4.387-6.652 4.143 4.143 0 0 0-2.367-4.382 4.912 4.912 0 0 0-1.951-.43 3.97 3.97 0 0 0-1.431.26 3.93 3.93 0 0 0-2.285-1.94 5.133 5.133 0 0 0-1.675-.295 4.411 4.411 0 0 0-2.609.836 3.93 3.93 0 0 0-5.857-.33c-.974-.745-4.837-3.199-15.177-5.546-.494-.112-1.615-.433-2.32-.64.97-4.642 3.918-8.88 8.293-12.358Zm19.18 26.916-.113-.1h-.113a.558.558 0 0 0-.316.128 2.656 2.656 0 0 1-1.545.55 2.404 2.404 0 0 1-.863-.168 3.344 3.344 0 0 1-2.09-3.876.329.329 0 0 0-.105-.317l-.17-.138-.158.15a2.467 2.467 0 0 1-1.72.698 2.488 2.488 0 1 1 2.458-2.804l.086.668.367-.566a3.458 3.458 0 0 1 3.977-1.415 2.516 2.516 0 0 1 1.762 2.343c.026.324.257.34.302.34a.405.405 0 0 0 .288-.15 2.51 2.51 0 0 1 1.832-.774c.474.01.94.115 1.373.31 2.343 1.005 1.28 3.982 1.268 4.013-.203.493-.21.711-.021.837l.092.043h.069a1.64 1.64 0 0 0 .454-.118c.4-.158.82-.251 1.25-.276a3.196 3.196 0 1 1-.001 6.392 3.172 3.172 0 0 1-3.189-3.05c-.005-.146-.02-.535-.35-.535a.605.605 0 0 0-.387.205 2.247 2.247 0 0 1-1.567.707 2.753 2.753 0 0 1-1.033-.224c-1.82-.739-1.845-1.989-1.771-2.491a.453.453 0 0 0-.067-.382Zm11.38 13.88c-21.657 0-39.213-11.231-39.213-25.085.004-.554.035-1.107.095-1.658.173.042 1.893.453 2.249.533 10.562 2.346 14.053 4.786 14.642 5.247a3.957 3.957 0 0 0 4.379 5.413 4.614 4.614 0 0 0 2.985 3.45c.45.176.928.268 1.41.271.304.002.607-.035.901-.11a4.59 4.59 0 0 0 4.011 2.618 3.49 3.49 0 0 0 1.208-.216 4.658 4.658 0 0 0 7.66 1.478 8.77 8.77 0 0 0 3.95 1.18c.2 0 .4-.014.599-.038a3.622 3.622 0 0 0 2.679-1.311c.062-.085.117-.175.165-.269.41.126.837.192 1.266.198a4.265 4.265 0 0 0 2.553-.912 3.517 3.517 0 0 0 1.506-2.192.273.273 0 0 0 .004-.03c.28.057.567.086.854.086a4.737 4.737 0 0 0 2.623-.832 3.778 3.778 0 0 0 1.882-3.371c.285.059.575.09.866.09a4.528 4.528 0 0 0 2.457-.757 3.605 3.605 0 0 0 1.71-2.78 3.779 3.779 0 0 0-.543-2.246 101.527 101.527 0 0 1 16.263-5.093c.032.415.05.832.05 1.252 0 13.853-17.556 25.084-39.212 25.084ZM259.576 39.99c-1.481-1.857-3.729-2.785-6.745-2.784-3.013 0-5.261.928-6.743 2.783a10.214 10.214 0 0 0-2.223 6.578 10.16 10.16 0 0 0 2.223 6.604c1.481 1.826 3.729 2.74 6.743 2.741 3.017 0 5.266-.913 6.745-2.741a10.16 10.16 0 0 0 2.222-6.604 10.214 10.214 0 0 0-2.222-6.578Zm-3.668 10.645a4.073 4.073 0 0 1-3.095 1.431 4.067 4.067 0 0 1-3.095-1.431 6.608 6.608 0 0 1-1.085-4.068 6.576 6.576 0 0 1 1.085-4.06 4.07 4.07 0 0 1 3.095-1.423 4.074 4.074 0 0 1 3.095 1.423 6.628 6.628 0 0 1 1.077 4.06 6.661 6.661 0 0 1-1.077 4.068Zm-34.18-12.198a11.24 11.24 0 0 0-5.154-1.144c-2.975 0-5.073.775-6.295 2.324a6.766 6.766 0 0 0-1.3 3.797h4.444a3.298 3.298 0 0 1 .655-1.616 2.925 2.925 0 0 1 2.338-.807 4.783 4.783 0 0 1 2.237.413 1.548 1.548 0 0 1 .76 1.492 1.385 1.385 0 0 1-.991 1.308 7.292 7.292 0 0 1-1.841.404l-1.576.193a11.25 11.25 0 0 0-4.066 1.132 5.01 5.01 0 0 0-2.521 4.7 4.851 4.851 0 0 0 1.567 3.866 6.213 6.213 0 0 0 3.971 1.365c10.046.45 9.933-5.293 10.024-6.487v-6.61c0-2.12-.75-3.563-2.252-4.33Zm-2.333 10.031a3.692 3.692 0 0 1-1.318 3.181 4.806 4.806 0 0 1-2.777.873 2.538 2.538 0 0 1-1.618-.526 2.046 2.046 0 0 1-.663-1.706 2.103 2.103 0 0 1 1.086-1.953 6.808 6.808 0 0 1 2.117-.625l1.049-.195a7.85 7.85 0 0 0 1.234-.32c.312-.114.61-.262.89-.442v1.713Zm-20.574-7.239a2.998 2.998 0 0 1 2.538 1.064c.373.525.613 1.133.697 1.772h4.955c-.271-2.501-1.145-4.246-2.623-5.234a10.108 10.108 0 0 0-5.701-1.481 8.327 8.327 0 0 0-6.421 2.511 9.954 9.954 0 0 0-2.329 7.027 9.804 9.804 0 0 0 2.107 6.513c1.404 1.674 3.595 2.51 6.572 2.511a7.92 7.92 0 0 0 6.747-3.011 7.417 7.417 0 0 0 1.595-3.96h-4.937a4.18 4.18 0 0 1-.868 2.256 2.98 2.98 0 0 1-2.415.868 3.227 3.227 0 0 1-3.266-2.192 8.355 8.355 0 0 1-.479-3.098 9.149 9.149 0 0 1 .479-3.245 3.33 3.33 0 0 1 3.349-2.301ZM188.61 37.35c-10.18 0-9.578 9.012-9.578 9.012v9.155h4.62v-8.586a7.108 7.108 0 0 1 .53-3.127c.635-1.201 1.875-1.802 3.721-1.804.139 0 .322.009.547.019.225.012.48.03.775.066v-4.699c-.205-.015-.339-.02-.396-.027a2.584 2.584 0 0 0-.219-.009Zm-13.281 3.415a7.176 7.176 0 0 0-3.033-2.597 10.031 10.031 0 0 0-4.124-.82 8.466 8.466 0 0 0-6.276 2.43c-1.611 1.625-2.418 3.956-2.42 6.994 0 3.246.893 5.588 2.68 7.026a9.57 9.57 0 0 0 6.18 2.16 8.523 8.523 0 0 0 6.601-2.561 6.203 6.203 0 0 0 1.604-2.663h-4.9a3.323 3.323 0 0 1-.631.698 3.95 3.95 0 0 1-2.582.701 4.388 4.388 0 0 1-2.459-.589 4.165 4.165 0 0 1-1.872-3.667h12.783a23.176 23.176 0 0 0-.154-3.484 8.645 8.645 0 0 0-1.397-3.628Zm-11.118 4.083a4.773 4.773 0 0 1 1.221-2.715 3.651 3.651 0 0 1 2.74-1.002 4.016 4.016 0 0 1 2.723.947c.381.355.686.783.895 1.26.21.476.321.99.325 1.51h-7.904Zm-13.913-7.558a6.722 6.722 0 0 0-5.244 2.445 6.5 6.5 0 0 0-5.247-2.445c-4.511 0-7.422 3.315-7.422 7.703v10.523h4.222V44.89a3.089 3.089 0 0 1 1.938-3.06c.401-.16.831-.235 1.262-.22a2.937 2.937 0 0 1 3.071 3.28v10.625h4.222V44.89a3.1 3.1 0 0 1 1.94-3.054 3.112 3.112 0 0 1 1.258-.225 2.96 2.96 0 0 1 2.31.922 2.97 2.97 0 0 1 .795 2.357v10.625h4.218V44.993c0-4.523-2.716-7.703-7.323-7.703Zm87.541-2.248-.005 4.95a5.535 5.535 0 0 0-2.01-1.941 5.668 5.668 0 0 0-2.835-.7 6.73 6.73 0 0 0-5.526 2.574 11.346 11.346 0 0 0-2.07 7.188 9.557 9.557 0 0 0 2.102 6.386c1.401 1.655 4.145 2.382 6.585 2.382 8.507 0 8.407-7.293 8.407-7.293l.003-16.786s-4.651-.497-4.651 3.24Zm-.889 15.63a3.384 3.384 0 0 1-2.961 1.449 3.239 3.239 0 0 1-2.905-1.457 7.433 7.433 0 0 1-.956-4.007 7.041 7.041 0 0 1 .939-3.775 3.22 3.22 0 0 1 2.953-1.523 3.51 3.51 0 0 1 2.32.836c1.083.924 1.626 2.582 1.626 4.726a6.414 6.414 0 0 1-1.016 3.751Zm-94.804 11.905c-3.804-.18-5.726.727-6.978 1.683-1.731 1.32-2.783 3.274-2.783 6.395v16.048h2.236a2.419 2.419 0 0 0 1.64-.614 2.181 2.181 0 0 0 .741-1.663v-5.998a5.07 5.07 0 0 0 2.172 2.078 6.99 6.99 0 0 0 2.986.602 6.393 6.393 0 0 0 5.229-2.546 10.806 10.806 0 0 0 2.035-6.833 9.87 9.87 0 0 0-2.182-6.692 6.985 6.985 0 0 0-5.096-2.46Zm1.575 13.172a3.245 3.245 0 0 1-2.783 1.407 3.377 3.377 0 0 1-2.918-1.407 6.022 6.022 0 0 1-1.018-3.819 6.804 6.804 0 0 1 .948-4.02 3.324 3.324 0 0 1 2.854-1.407 3.39 3.39 0 0 1 2.918 1.407 6.763 6.763 0 0 1 1.02 4.02 6.36 6.36 0 0 1-1.021 3.819Zm38.103-11.516a8.463 8.463 0 0 0-5.933-1.74c-2.8.077-4.837.86-6.104 2.577a11.07 11.07 0 0 0-1.898 6.725c-.093 2.008.405 4 1.431 5.728a7.479 7.479 0 0 0 3.438 2.974 6.602 6.602 0 0 0 4.032.339 5.112 5.112 0 0 0 3.234-2.342v1.134a5.497 5.497 0 0 1-1.032 3.216 3.653 3.653 0 0 1-2.005 1.304 3.716 3.716 0 0 1-3.83-1.705h-4.867c1.26 3.79 3.524 5.46 7.601 5.757 6.578.474 8.674-5.096 8.667-8.1v-9.442c0-3.121-1.017-5.12-2.734-6.425Zm-1.934 9.274a4.994 4.994 0 0 1-.867 2.306c-.845 1.159-2.155 1.572-3.932 1.24-1.78-.337-2.67-2.044-2.67-5.121a8.702 8.702 0 0 1 .802-3.818 3.078 3.078 0 0 1 3.066-1.672 2.93 2.93 0 0 1 2.534 1.205 6.182 6.182 0 0 1 1.101 2.747 9.792 9.792 0 0 1-.034 3.113Zm-15.951-9.742a11.293 11.293 0 0 0-5.155-1.143c-2.974 0-5.071.775-6.292 2.324a6.773 6.773 0 0 0-1.299 3.795h4.445a3.3 3.3 0 0 1 .653-1.614 2.927 2.927 0 0 1 2.337-.809 4.772 4.772 0 0 1 2.237.413 1.554 1.554 0 0 1 .76 1.494 1.385 1.385 0 0 1-.992 1.308 7.403 7.403 0 0 1-1.84.404l-1.574.191a11.262 11.262 0 0 0-4.065 1.132 5.003 5.003 0 0 0-2.522 4.696 4.834 4.834 0 0 0 1.566 3.866 6.207 6.207 0 0 0 3.973 1.367c10.04.45 9.927-5.294 10.018-6.487v-6.61c0-2.117-.75-3.56-2.25-4.327Zm-2.335 10.029a3.688 3.688 0 0 1-1.316 3.18 4.801 4.801 0 0 1-2.776.873 2.534 2.534 0 0 1-1.617-.526 2.04 2.04 0 0 1-.665-1.705 2.11 2.11 0 0 1 1.088-1.953 6.814 6.814 0 0 1 2.114-.626l1.051-.194a7.605 7.605 0 0 0 1.23-.318c.312-.115.611-.263.891-.444v1.713Zm40.423-8.571c-1.484-1.857-3.733-2.786-6.747-2.785-3.011 0-5.258.929-6.74 2.785a10.211 10.211 0 0 0-2.223 6.574 10.162 10.162 0 0 0 2.223 6.603c1.48 1.824 3.727 2.737 6.74 2.739 3.017 0 5.265-.913 6.747-2.739a10.178 10.178 0 0 0 2.218-6.603 10.227 10.227 0 0 0-2.218-6.574Zm-3.671 10.638a4.053 4.053 0 0 1-6.185 0 6.575 6.575 0 0 1-1.088-4.064 6.548 6.548 0 0 1 1.088-4.056 4.066 4.066 0 0 1 4.794-1.05 4.07 4.07 0 0 1 1.391 1.05 6.606 6.606 0 0 1 1.077 4.056 6.634 6.634 0 0 1-1.077 4.064Z" fill="#0A0080"/></svg>